<svg xmlns="http://www.w3.org/2000/svg" viewBox="0 0 35 35"><title>資產 5</title><g id="圖層_2" data-name="圖層 2"><g id="圖層_1-2" data-name="圖層 1"><path d="M16.41,0h2.18c.59.08,1.18.13,1.76.23a17.17,17.17,0,0,1,8.77,4.2,17.27,17.27,0,0,1,5.61,10.05c.11.64.18,1.28.27,1.93v2.18c0,.32-.09.63-.13.95a17.12,17.12,0,0,1-7.09,12.09A16.89,16.89,0,0,1,15.2,34.84a16.82,16.82,0,0,1-9.26-4.23A17.24,17.24,0,0,1,.27,20.55c-.11-.65-.18-1.3-.27-2V16.41c.05-.43.1-.86.16-1.29A17.25,17.25,0,0,1,5,5.26a17.14,17.14,0,0,1,9.47-5C15.12.16,15.77.09,16.41,0ZM7.14,11V23.82l.25,0c2.1,0,4.19,0,6.29,0a5.55,5.55,0,0,0,1.22-.12A3.31,3.31,0,0,0,17.78,21a6.37,6.37,0,0,0,0-2.09,2.25,2.25,0,0,0-1.93-2.09s0,0,0-.06a2.29,2.29,0,0,0,1.37-1.15,3.41,3.41,0,0,0-1.15-4.1A4.15,4.15,0,0,0,13.8,11H7.45Zm18.38,9.72a1.38,1.38,0,0,1-1,1.22,3.14,3.14,0,0,1-1.82.06,1.91,1.91,0,0,1-1.45-2.16h6.7a19.74,19.74,0,0,0-.19-2.1,3.84,3.84,0,0,0-3-3.31,6.78,6.78,0,0,0-1.69-.16,4.4,4.4,0,0,0-4.23,2.94A6,6,0,0,0,18.46,20a4.25,4.25,0,0,0,3.2,3.86,7,7,0,0,0,2.78.15,4.42,4.42,0,0,0,2.23-.87,2.93,2.93,0,0,0,1.09-2.48Zm-4.91-7.42h5.27V11.73H20.61Z"/><path d="M10.08,21.52V18.11H13.7a1.3,1.3,0,0,1,1.38,1.08,3.77,3.77,0,0,1,0,1.21A1.18,1.18,0,0,1,14,21.5C12.67,21.55,11.39,21.52,10.08,21.52Z"/><path d="M10.08,16.12V13.25h3.53a.93.93,0,0,1,1.06.87,4,4,0,0,1,0,1.19.87.87,0,0,1-1,.8c-.44,0-.89,0-1.33,0Z"/><path d="M21.2,18.09a2.16,2.16,0,0,1,2.39-2,1.79,1.79,0,0,1,1.75,2Z"/></g></g></svg>