<svg xmlns="http://www.w3.org/2000/svg" viewBox="0 0 40.39 40.39"><defs><style>.cls-1{fill:#9cf;}</style></defs><title>behance</title><g id="圖層_2" data-name="圖層 2"><g id="圖層_1-2" data-name="圖層 1"><path class="cls-1" d="M18.93,0h2.53c.67.09,1.35.15,2,.26A19.85,19.85,0,0,1,33.6,5.12a19.84,19.84,0,0,1,6.48,11.6c.13.73.21,1.47.31,2.21v2.53c0,.36-.1.72-.14,1.09a19.85,19.85,0,0,1-8.19,14,19.56,19.56,0,0,1-14.52,3.7A19.6,19.6,0,0,1,6.85,35.33,19.9,19.9,0,0,1,.31,23.71C.18,23,.1,22.21,0,21.46V18.93c.06-.49.11-1,.18-1.48A19.9,19.9,0,0,1,5.79,6.07,19.77,19.77,0,0,1,16.72.31C17.45.18,18.19.1,18.93,0ZM8.24,12.66V27.49l.29,0h7.26a7.23,7.23,0,0,0,1.4-.15,3.82,3.82,0,0,0,3.33-3.08,7.28,7.28,0,0,0,0-2.42,2.6,2.6,0,0,0-2.23-2.42s0,0,0-.06a2.73,2.73,0,0,0,1.59-1.33,4,4,0,0,0-1.34-4.73,4.72,4.72,0,0,0-2.59-.68H8.59ZM29.45,23.88a1.57,1.57,0,0,1-1.18,1.4,3.58,3.58,0,0,1-2.1.07,2.2,2.2,0,0,1-1.67-2.49h7.73A23.14,23.14,0,0,0,32,20.44a4.42,4.42,0,0,0-3.44-3.82,7.5,7.5,0,0,0-1.95-.18,5.06,5.06,0,0,0-4.89,3.39,7.05,7.05,0,0,0-.43,3.28A4.92,4.92,0,0,0,25,27.57a8,8,0,0,0,3.2.17,5.13,5.13,0,0,0,2.58-1A3.41,3.41,0,0,0,32,23.88Zm-5.67-8.56h6.09V13.54H23.78Z"/><path class="cls-1" d="M11.63,24.83V20.9h4.18a1.5,1.5,0,0,1,1.59,1.24,4.11,4.11,0,0,1,0,1.4,1.35,1.35,0,0,1-1.33,1.28C14.62,24.87,13.14,24.83,11.63,24.83Z"/><path class="cls-1" d="M11.63,18.61V15.29H15.7a1.08,1.08,0,0,1,1.23,1,4.44,4.44,0,0,1,0,1.36,1,1,0,0,1-1.12.94c-.52,0-1,0-1.54,0Z"/><path class="cls-1" d="M24.47,20.87a2.51,2.51,0,0,1,2.76-2.26,2.09,2.09,0,0,1,2,2.26Z"/></g></g></svg>