<?xml version="1.0" encoding="utf-8"?>
<!-- Generator: Adobe Illustrator 23.0.5, SVG Export Plug-In . SVG Version: 6.00 Build 0)  -->
<svg version="1.1" id="圖層_1" xmlns="http://www.w3.org/2000/svg" xmlns:xlink="http://www.w3.org/1999/xlink" x="0px" y="0px"
	 viewBox="0 0 40.4 40.4" style="enable-background:new 0 0 40.4 40.4;" xml:space="preserve">
<style type="text/css">
	.st0{fill:#A2DCF5;}
</style>
<title>behance</title>
<g>
	<g id="圖層_1-2">
		<path class="st0" d="M18.9,0h2.5c0.7,0.1,1.4,0.2,2,0.3c3.8,0.6,7.3,2.3,10.1,4.9c3.4,3,5.7,7.1,6.5,11.6c0.1,0.7,0.2,1.5,0.3,2.2
			v2.5c0,0.4-0.1,0.7-0.1,1.1c-0.6,5.6-3.6,10.7-8.2,14c-4.2,3.1-9.4,4.4-14.5,3.7c-4-0.5-7.7-2.2-10.7-4.9c-3.5-3-5.8-7.1-6.5-11.6
			C0.2,23,0.1,22.2,0,21.5v-2.5c0.1-0.5,0.1-1,0.2-1.5c0.6-4.3,2.5-8.3,5.6-11.4C8.7,3,12.6,1,16.7,0.3C17.5,0.2,18.2,0.1,18.9,0z
			 M8.2,12.7v14.8h0.3h7.3c0.5,0,0.9-0.1,1.4-0.1c1.7-0.2,3-1.4,3.3-3.1c0.1-0.8,0.1-1.6,0-2.4c-0.1-1.2-1-2.2-2.2-2.4
			c0,0,0,0,0-0.1c0.7-0.2,1.3-0.7,1.6-1.3c0.7-1.7,0.1-3.6-1.3-4.7c-0.8-0.5-1.7-0.7-2.6-0.7H8.6L8.2,12.7z M29.5,23.9
			c-0.1,0.7-0.5,1.2-1.2,1.4c-0.7,0.2-1.4,0.3-2.1,0.1c-1.1-0.3-1.9-1.4-1.7-2.5h7.7c0-0.8-0.1-1.6-0.2-2.4
			c-0.2-1.9-1.6-3.4-3.4-3.8c-0.6-0.1-1.3-0.2-2-0.2c-2.2,0-4.2,1.3-4.9,3.4c-0.4,1-0.5,2.2-0.4,3.3c0.1,2.1,1.6,3.9,3.7,4.5
			c1,0.3,2.1,0.3,3.2,0.2c0.9-0.1,1.8-0.4,2.6-1c0.8-0.7,1.3-1.8,1.2-2.9H29.5z M23.8,15.3h6.1v-1.8h-6.1V15.3z"/>
		<path class="st0" d="M11.6,24.8v-3.9h4.2c0.8-0.1,1.5,0.5,1.6,1.2c0.1,0.5,0.1,0.9,0,1.4c0,0.7-0.6,1.3-1.3,1.3
			C14.6,24.9,13.1,24.8,11.6,24.8z"/>
		<path class="st0" d="M11.6,18.6v-3.3h4.1c0.6-0.1,1.1,0.3,1.2,0.9c0,0,0,0.1,0,0.1c0.1,0.5,0.1,0.9,0,1.4c0,0.6-0.5,1-1.1,0.9
			c0,0,0,0-0.1,0c-0.5,0-1,0-1.5,0L11.6,18.6z"/>
		<path class="st0" d="M24.5,20.9c0.1-1.4,1.4-2.4,2.7-2.3c0,0,0,0,0,0c1.2,0,2.1,1,2,2.2c0,0,0,0.1,0,0.1H24.5z"/>
	</g>
</g>
</svg>
