<?xml version="1.0" encoding="utf-8"?>
<!-- Generator: Adobe Illustrator 23.0.5, SVG Export Plug-In . SVG Version: 6.00 Build 0)  -->
<svg version="1.1" id="圖層_1" xmlns="http://www.w3.org/2000/svg" xmlns:xlink="http://www.w3.org/1999/xlink" x="0px" y="0px"
	 viewBox="0 0 40.4 39.4" style="enable-background:new 0 0 40.4 39.4;" xml:space="preserve">
<style type="text/css">
	.st0{fill:#A2DCF5;}
</style>
<title>github</title>
<g>
	<g id="圖層_1-2">
		<path class="st0" d="M40.4,20.9c0,0.1,0,0.2,0,0.2c-0.1,3.3-1.1,6.6-2.8,9.4c-2.2,3.8-5.6,6.7-9.7,8.3c-0.4,0.2-0.7,0.3-1.1,0.4
			c-0.2,0.1-0.5,0.1-0.8,0c-0.4-0.1-0.7-0.5-0.7-0.9v-0.3v-5.4c0-0.7-0.1-1.4-0.3-2c-0.2-0.6-0.5-1.1-1-1.6c0,0,0,0-0.1-0.1l0.6-0.1
			c1.2-0.1,2.4-0.4,3.5-0.9c2.4-0.9,4.1-2.9,4.7-5.4c0.2-0.9,0.4-1.7,0.4-2.6c0-0.6,0-1.1,0-1.7c-0.1-1.7-0.8-3.3-1.9-4.5l-0.1-0.1
			c-0.1-0.1-0.1-0.2,0-0.2c0.1-0.4,0.2-0.8,0.3-1.2c0.1-1,0.1-1.9-0.2-2.9c-0.1-0.3-0.2-0.6-0.3-0.9c0-0.1-0.2-0.2-0.3-0.2
			c-0.5,0-0.9,0-1.4,0.1c-0.8,0.2-1.6,0.6-2.4,1c-0.5,0.3-1,0.6-1.5,0.9c-0.1,0.1-0.2,0.1-0.3,0.1c-1.8-0.5-3.6-0.7-5.5-0.6
			c-1.4,0-2.9,0.3-4.3,0.6c-0.1,0-0.2,0-0.3-0.1c-0.9-0.6-1.9-1.1-2.9-1.6c-0.5-0.2-1.1-0.4-1.6-0.4c-0.2,0-0.5,0-0.7,0
			c-0.1,0-0.2,0.1-0.2,0.2C9.2,9.7,9,10.9,9.1,12.2c0,0.5,0.2,1,0.3,1.4c0,0.1,0,0.2-0.1,0.3c-1,1.1-1.7,2.5-1.9,4
			c-0.1,0.6-0.1,1.1-0.1,1.7c0,0.9,0.1,1.8,0.3,2.7c0.2,1.2,0.7,2.3,1.4,3.3c0.9,1.1,2,2,3.3,2.5c0.9,0.4,1.8,0.6,2.8,0.8l1.1,0.2
			h0.2c0,0,0,0.1,0,0.1c-0.6,0.6-0.9,1.3-1.1,2.1c0,0.1-0.1,0.3-0.1,0.5c0,0.1,0,0.1-0.1,0.2c-1,0.5-2.1,0.6-3.1,0.4
			c-0.7-0.2-1.4-0.6-1.9-1.1c-0.3-0.3-0.5-0.6-0.7-0.9c-0.4-0.6-0.8-1.1-1.4-1.5c-0.4-0.3-0.9-0.5-1.4-0.6c-0.3-0.1-0.7-0.1-1,0
			c-0.4,0.1-0.5,0.3-0.2,0.7c0.2,0.2,0.4,0.4,0.7,0.5c0.4,0.2,0.7,0.5,1,0.9c0.5,0.7,1,1.4,1.3,2.2c0.4,1.1,1.3,1.9,2.4,2.2
			c0.8,0.2,1.7,0.3,2.6,0.3c0.5,0,1-0.1,1.6-0.2h0.1c0,0.1,0,0.1,0,0.2c0,1.2,0,2.3,0,3.5c0,0.1,0,0.2,0,0.3c-0.1,0.5-0.5,0.8-1,0.7
			c-0.2,0-0.3,0-0.5-0.1C6.4,36.9,1.2,30.5,0.2,22.9c-0.3-2-0.2-3.9,0.1-5.9C1.5,8.9,7.6,2.4,15.5,0.6C16.8,0.2,18,0.1,19.3,0h0.2
			h1.5c0.1,0,0.1,0,0.2,0h0.7c1.2,0.1,2.4,0.3,3.6,0.6c5.4,1.4,10,5,12.6,10c1.5,2.7,2.3,5.6,2.4,8.7c0,0.1,0,0.1,0,0.2V20.9z"/>
	</g>
</g>
</svg>
