<svg xmlns="http://www.w3.org/2000/svg" viewBox="0 0 35 34.14"><title>資產 7</title><g id="圖層_2" data-name="圖層 2"><g id="圖層_1-2" data-name="圖層 1"><path d="M35,18.12a1.38,1.38,0,0,0,0,.2,16.83,16.83,0,0,1-2.45,8.17,17.34,17.34,0,0,1-8.4,7.23q-.48.2-1,.36a1.14,1.14,0,0,1-.66,0,.83.83,0,0,1-.62-.8v-.23c0-1.55,0-3.1,0-4.64a5.28,5.28,0,0,0-.26-1.77,3.35,3.35,0,0,0-.84-1.37l-.05-.07.51-.07a11.91,11.91,0,0,0,3-.76,6.6,6.6,0,0,0,4.07-4.65,11.13,11.13,0,0,0,.35-2.29,10.59,10.59,0,0,0,0-1.49,6.63,6.63,0,0,0-1.62-3.92A.27.27,0,0,0,27,12a.17.17,0,0,1,0-.2,5.65,5.65,0,0,0,.25-1.08,6.34,6.34,0,0,0-.16-2.49c-.07-.27-.17-.54-.25-.81a.24.24,0,0,0-.25-.18,3.56,3.56,0,0,0-1.17.12,8.54,8.54,0,0,0-2.07.86c-.43.24-.84.5-1.26.76a.29.29,0,0,1-.27.05A16.18,16.18,0,0,0,17,8.45,15.63,15.63,0,0,0,13.32,9,.31.31,0,0,1,13,9,13.19,13.19,0,0,0,10.53,7.6a5.56,5.56,0,0,0-1.4-.37c-.21,0-.42,0-.63,0a.21.21,0,0,0-.2.16,6.89,6.89,0,0,0-.44,3.15,5.2,5.2,0,0,0,.27,1.23.2.2,0,0,1,0,.24,6.7,6.7,0,0,0-1.63,3.52A7.9,7.9,0,0,0,6.39,17a12.25,12.25,0,0,0,.27,2.34A7.53,7.53,0,0,0,7.9,22.17a6.6,6.6,0,0,0,2.86,2.2,10.55,10.55,0,0,0,2.41.69c.32.06.65.1,1,.14l.16,0s0,.05,0,.06a3.63,3.63,0,0,0-.95,1.79c0,.13-.05.26-.07.39a.18.18,0,0,1-.1.14,4.39,4.39,0,0,1-2.72.32,3.24,3.24,0,0,1-1.67-1,4.51,4.51,0,0,1-.59-.79A4.81,4.81,0,0,0,7,24.89a2.67,2.67,0,0,0-1.19-.53,2.21,2.21,0,0,0-.85,0c-.36.08-.43.29-.2.57a1.8,1.8,0,0,0,.56.47,2.56,2.56,0,0,1,.85.75A8.1,8.1,0,0,1,7.31,28.1,3.14,3.14,0,0,0,9.43,30a5.92,5.92,0,0,0,2.25.22c.45,0,.9-.1,1.34-.15l.11,0a.78.78,0,0,1,0,.14c0,1,0,2,0,3a.85.85,0,0,1-.9.92,1.2,1.2,0,0,1-.42-.07A17.4,17.4,0,0,1,.16,19.83,17,17,0,0,1,0,17.69a18.35,18.35,0,0,1,.22-3A17.49,17.49,0,0,1,13.45.48,17,17,0,0,1,16.7,0a1.13,1.13,0,0,0,.18,0h1.26l.19,0,.59,0A15.46,15.46,0,0,1,22,.6,17.31,17.31,0,0,1,32.9,9.19,16.46,16.46,0,0,1,35,16.71a1.13,1.13,0,0,0,0,.18Z"/></g></g></svg>