<svg xmlns="http://www.w3.org/2000/svg" viewBox="0 0 40.39 39.41"><defs><style>.cls-1{fill:#9cf;}</style></defs><title>github</title><g id="圖層_2" data-name="圖層 2"><g id="圖層_1-2" data-name="圖層 1"><path class="cls-1" d="M40.39,20.91a1.81,1.81,0,0,0,0,.23,19.48,19.48,0,0,1-2.83,9.43,20.12,20.12,0,0,1-9.7,8.35c-.36.15-.73.28-1.1.41a1.32,1.32,0,0,1-.76,0,1,1,0,0,1-.72-.93v-.26l0-5.36a6.39,6.39,0,0,0-.31-2,3.89,3.89,0,0,0-1-1.59s0,0-.06-.07l.59-.08A14.3,14.3,0,0,0,28,28.16a7.66,7.66,0,0,0,4.7-5.37,13.17,13.17,0,0,0,.4-2.64,12.34,12.34,0,0,0,0-1.72,7.7,7.7,0,0,0-1.87-4.53l-.08-.09a.18.18,0,0,1,0-.23,6.41,6.41,0,0,0,.3-1.24,7.5,7.5,0,0,0-.19-2.87c-.08-.32-.2-.63-.29-.94a.28.28,0,0,0-.29-.21,4.4,4.4,0,0,0-1.35.14,9.58,9.58,0,0,0-2.39,1c-.49.28-1,.58-1.45.88a.34.34,0,0,1-.31.05,19.16,19.16,0,0,0-5.48-.63,18.75,18.75,0,0,0-4.28.63.35.35,0,0,1-.33-.05,14.7,14.7,0,0,0-2.9-1.55,6,6,0,0,0-1.61-.43,5.93,5.93,0,0,0-.73,0c-.12,0-.18.06-.23.17a7.91,7.91,0,0,0-.51,3.64,6.32,6.32,0,0,0,.31,1.42.23.23,0,0,1-.05.28,7.69,7.69,0,0,0-1.87,4.05,8.77,8.77,0,0,0-.09,1.7,14.31,14.31,0,0,0,.31,2.69,8.82,8.82,0,0,0,1.43,3.31,7.74,7.74,0,0,0,3.31,2.54,12.63,12.63,0,0,0,2.78.79l1.13.17.18,0s0,.06,0,.07a4.09,4.09,0,0,0-1.09,2.06c0,.15-.06.3-.09.45a.17.17,0,0,1-.12.16,5,5,0,0,1-3.13.37,3.7,3.7,0,0,1-1.93-1.13,5.19,5.19,0,0,1-.69-.91A5.15,5.15,0,0,0,8.1,28.72a3,3,0,0,0-1.37-.61,2.69,2.69,0,0,0-1,0c-.42.09-.5.34-.24.67a2.12,2.12,0,0,0,.66.53,3.27,3.27,0,0,1,1,.88,9,9,0,0,1,1.3,2.22,3.62,3.62,0,0,0,2.45,2.17,7.11,7.11,0,0,0,2.59.26c.52,0,1-.12,1.55-.18l.13,0c0,.06,0,.11,0,.16,0,1.17,0,2.34,0,3.51a1.34,1.34,0,0,1,0,.35.94.94,0,0,1-1,.71,1.56,1.56,0,0,1-.48-.08A20.13,20.13,0,0,1,.18,22.89,19.9,19.9,0,0,1,.26,17,20.16,20.16,0,0,1,15.53.55,19.59,19.59,0,0,1,19.27,0l.21,0h1.46a1.52,1.52,0,0,0,.21,0l.69,0a18.36,18.36,0,0,1,3.59.62A20,20,0,0,1,38,10.6a19.11,19.11,0,0,1,2.39,8.68,1.52,1.52,0,0,0,0,.21Z"/></g></g></svg>