<svg xmlns="http://www.w3.org/2000/svg" viewBox="0 0 40.39 40.38"><defs><style>.cls-1{fill:#9cf;}</style></defs><title>medium</title><g id="圖層_2" data-name="圖層 2"><g id="圖層_1-2" data-name="圖層 1"><path class="cls-1" d="M40.39,19.88v.56a.29.29,0,0,0,0,.09,19.53,19.53,0,0,1-.3,3.15,20.24,20.24,0,0,1-7.4,12.38,19.86,19.86,0,0,1-10.85,4.25,20.78,20.78,0,0,1-4-.07,19.26,19.26,0,0,1-4.36-1,20.67,20.67,0,0,1-8-5.27A19.25,19.25,0,0,1,1.05,26.6a20.08,20.08,0,0,1-.87-3.85A11.94,11.94,0,0,1,0,21.05c0-.44,0-.89,0-1.34a5.46,5.46,0,0,1,0-.81c.11-.86.21-1.72.37-2.57a18.78,18.78,0,0,1,1.88-5.44A20.4,20.4,0,0,1,6.84,5.06a19.35,19.35,0,0,1,6.82-4,21.1,21.1,0,0,1,3.91-.9A10.75,10.75,0,0,1,18.93,0,19.94,19.94,0,0,1,22,.1c.68.12,1.38.17,2.06.3a19.47,19.47,0,0,1,5.39,1.86,20.21,20.21,0,0,1,10,11.86,19.73,19.73,0,0,1,.93,5.66A.36.36,0,0,0,40.39,19.88Zm-18.21.33c0-.45-.06-.89-.13-1.32a8.29,8.29,0,0,0-2.34-4.74,8.4,8.4,0,0,0-7.6-2.54A8.16,8.16,0,0,0,7.16,14.3,8.55,8.55,0,0,0,5,21.46a8.34,8.34,0,0,0,2.37,4.81,8.5,8.5,0,0,0,5.4,2.59A8.08,8.08,0,0,0,17.34,28,8.7,8.7,0,0,0,22.18,20.21Zm9.48-.29c0-.3-.05-.89-.12-1.47a13.42,13.42,0,0,0-.94-3.58,5.23,5.23,0,0,0-1.7-2.29,2.4,2.4,0,0,0-2.68-.31,3.94,3.94,0,0,0-1.41,1.25,8.63,8.63,0,0,0-1.22,2.54A13.31,13.31,0,0,0,23,19.13,8.7,8.7,0,0,0,23,20.27c0,.53.09,1.06.14,1.59A11.85,11.85,0,0,0,24,25.43a5.78,5.78,0,0,0,1.62,2.29,2.47,2.47,0,0,0,3.28.09,5.19,5.19,0,0,0,1.6-2.08A14.38,14.38,0,0,0,31.66,19.92Zm.83-.34a30.59,30.59,0,0,0,.26,4.74,9.7,9.7,0,0,0,.58,2.3,7.27,7.27,0,0,0,.32.69.37.37,0,0,0,.65.07l.06-.06a3.07,3.07,0,0,0,.49-1.11l.18-1a26.9,26.9,0,0,0,.5-5.07A26.5,26.5,0,0,0,35.24,16a9.65,9.65,0,0,0-.55-2.24,3.73,3.73,0,0,0-.36-.72.36.36,0,0,0-.61,0,1.25,1.25,0,0,0-.21.3,5.37,5.37,0,0,0-.33.78,14.22,14.22,0,0,0-.49,2.42A25.88,25.88,0,0,0,32.49,19.58Z"/></g></g></svg>