<?xml version="1.0" encoding="utf-8"?>
<!-- Generator: Adobe Illustrator 23.0.5, SVG Export Plug-In . SVG Version: 6.00 Build 0)  -->
<svg version="1.1" id="圖層_1" xmlns="http://www.w3.org/2000/svg" xmlns:xlink="http://www.w3.org/1999/xlink" x="0px" y="0px"
	 viewBox="0 0 40.4 40.4" style="enable-background:new 0 0 40.4 40.4;" xml:space="preserve">
<style type="text/css">
	.st0{fill:#A2DCF5;}
</style>
<title>medium</title>
<g>
	<g id="圖層_1-2">
		<path class="st0" d="M40.4,19.9v0.6c0,0,0,0.1,0,0.1c0,1.1-0.1,2.1-0.3,3.1c-0.9,4.9-3.5,9.3-7.4,12.4c-3.1,2.5-6.9,4-10.9,4.3
			c-1.3,0.1-2.7,0.1-4-0.1c-1.5-0.2-3-0.5-4.4-1c-3-1.1-5.8-2.9-8-5.3c-2-2.1-3.5-4.6-4.4-7.4c-0.4-1.3-0.7-2.5-0.9-3.9
			C0.1,22.2,0,21.6,0,21c0-0.4,0-0.9,0-1.3c0-0.3,0-0.5,0-0.8c0.1-0.9,0.2-1.7,0.4-2.6c0.3-1.9,1-3.7,1.9-5.4C3.4,8.7,5,6.7,6.8,5.1
			c2-1.8,4.3-3.2,6.8-4c1.3-0.4,2.6-0.7,3.9-0.9C18,0.1,18.5,0,18.9,0C20,0,21,0,22,0.1c0.7,0.1,1.4,0.2,2.1,0.3
			c1.9,0.4,3.7,1,5.4,1.9c4.8,2.5,8.4,6.7,10,11.9c0.6,1.8,0.9,3.7,0.9,5.7C40.4,19.8,40.4,19.8,40.4,19.9z M22.2,20.2
			c0-0.5-0.1-0.9-0.1-1.3c-0.2-1.8-1.1-3.5-2.3-4.7c-1.9-2.1-4.8-3-7.6-2.5c-1.9,0.3-3.7,1.2-5,2.7c-1.8,1.9-2.6,4.6-2.2,7.2
			c0.2,1.8,1.1,3.5,2.4,4.8c1.4,1.5,3.3,2.4,5.4,2.6c1.6,0.2,3.2-0.1,4.6-0.9C20.3,26.5,22.2,23.5,22.2,20.2z M31.7,19.9
			c0-0.3,0-0.9-0.1-1.5c-0.1-1.2-0.5-2.4-0.9-3.6c-0.3-0.9-0.9-1.7-1.7-2.3c-0.7-0.6-1.8-0.8-2.7-0.3c-0.6,0.3-1,0.7-1.4,1.3
			c-0.5,0.8-1,1.6-1.2,2.5c-0.3,1-0.5,2-0.6,3.1c0,0.4,0,0.8,0,1.1c0,0.5,0.1,1.1,0.1,1.6c0.1,1.2,0.4,2.4,0.9,3.6
			c0.3,0.9,0.9,1.7,1.6,2.3c0.9,0.9,2.3,0.9,3.3,0.1c0.7-0.5,1.3-1.3,1.6-2.1C31.3,23.9,31.7,21.9,31.7,19.9z M32.5,19.6
			c0,1.6,0.1,3.2,0.3,4.7c0.1,0.8,0.3,1.6,0.6,2.3c0.1,0.2,0.2,0.5,0.3,0.7c0.1,0.2,0.3,0.3,0.5,0.2c0.1,0,0.1-0.1,0.2-0.1l0.1-0.1
			c0.2-0.3,0.4-0.7,0.5-1.1l0.2-1c0.3-1.7,0.5-3.4,0.5-5.1c0-1.4-0.1-2.8-0.3-4.1c-0.1-0.8-0.3-1.5-0.5-2.2
			c-0.1-0.3-0.2-0.5-0.4-0.7c-0.1-0.2-0.3-0.2-0.5-0.1c0,0-0.1,0.1-0.1,0.1c-0.1,0.1-0.2,0.2-0.2,0.3c-0.1,0.3-0.2,0.5-0.3,0.8
			c-0.2,0.8-0.4,1.6-0.5,2.4C32.6,17.5,32.5,18.6,32.5,19.6z"/>
	</g>
</g>
</svg>
