<svg xmlns="http://www.w3.org/2000/svg" viewBox="0 0 40.39 40.4"><defs><style>.cls-1{fill:#9cf;}</style></defs><title>twitter</title><g id="圖層_2" data-name="圖層 2"><g id="圖層_1-2" data-name="圖層 1"><path class="cls-1" d="M0,21.47V18.94c0-.13.05-.25.07-.38.12-.85.19-1.7.37-2.53A19.82,19.82,0,0,1,8.91,3.48,19.6,19.6,0,0,1,23.48.28a19.28,19.28,0,0,1,10,4.77,19.79,19.79,0,0,1,6.87,14.7,19.07,19.07,0,0,1-2.81,10.71,19.91,19.91,0,0,1-13.89,9.63c-.74.14-1.48.21-2.22.31H18.93l-1.47-.18A19.92,19.92,0,0,1,6.85,35.33,19.84,19.84,0,0,1,.31,23.72C.18,23,.1,22.22,0,21.47Zm29-7.54-.05-.1a4.65,4.65,0,0,0,1.85-2.34l-2.57.91a.5.5,0,0,1-.56-.15,4.62,4.62,0,0,0-7.66,2.32,14.61,14.61,0,0,0-.16,2.13,13.24,13.24,0,0,1-9.44-4.83,4.36,4.36,0,0,0-.63,2.46A4.65,4.65,0,0,0,11.77,18l-.06.11L9.8,17.57c-.1,1.92,1.06,3.42,3.51,4.6H11.4a4.81,4.81,0,0,0,4.31,3.26,9.51,9.51,0,0,1-6.78,1.91l.23.16a12.86,12.86,0,0,0,12.67.58c4.88-2.4,7.18-6.57,7.37-11.95a1,1,0,0,1,.45-.9,8.16,8.16,0,0,0,1.79-2Z"/></g></g></svg>