<svg xmlns="http://www.w3.org/2000/svg" viewBox="0 0 34.99 35"><title>資產 6</title><g id="圖層_2" data-name="圖層 2"><g id="圖層_1-2" data-name="圖層 1"><path d="M0,18.6V16.41c0-.11.05-.22.06-.33.11-.73.17-1.47.32-2.19A17.17,17.17,0,0,1,7.72,3,17,17,0,0,1,20.34.24,16.74,16.74,0,0,1,29,4.37,17.12,17.12,0,0,1,35,17.11a16.57,16.57,0,0,1-2.43,9.28,17.26,17.26,0,0,1-12,8.34c-.63.12-1.28.18-1.92.27H16.4l-1.28-.16a17.21,17.21,0,0,1-9.19-4.23A17.28,17.28,0,0,1,.27,20.55C.16,19.9.09,19.25,0,18.6Zm25.15-6.53,0-.08a4.12,4.12,0,0,0,1.61-2l-2.23.79a.42.42,0,0,1-.48-.13,4,4,0,0,0-6.64,2,13.74,13.74,0,0,0-.14,1.85,11.51,11.51,0,0,1-8.18-4.19,3.82,3.82,0,0,0-.54,2.14,4,4,0,0,0,1.69,3.17l0,.09-1.66-.46c-.09,1.67.91,3,3,4H9.87A4.18,4.18,0,0,0,13.61,22a8.28,8.28,0,0,1-5.87,1.66l.2.13a11.14,11.14,0,0,0,11,.51c4.23-2.08,6.23-5.7,6.38-10.35a.93.93,0,0,1,.39-.79,6.77,6.77,0,0,0,1.56-1.68Z"/></g></g></svg>